<svg width="1728" height="1118" viewBox="0 0 1728 1118" fill="none" xmlns="http://www.w3.org/2000/svg">
<g clip-path="url(#clip0_14540_404)">
<path d="M241.227 1161.82C185.648 1161.82 139.877 1154.18 103.914 1138.9C67.9511 1123.62 32.533 1103.42 -2.34012 1078.32C-30.6746 1057.58 -51.3805 1047.21 -64.458 1047.21C-77.5354 1047.21 -86.7986 1053.22 -92.2475 1065.22C-97.6964 1076.14 -98.7862 1101.79 -95.5169 1142.17H-113.498L-156 760.703H-134.749C-128.21 803.27 -113.498 852.932 -90.6128 909.688C-66.6375 966.445 -27.4052 1018.84 27.0841 1066.86C81.5734 1114.88 152.41 1138.9 239.592 1138.9C297.351 1138.9 346.391 1127.44 386.714 1104.52C427.036 1080.5 457.005 1049.4 476.621 1011.19C497.327 972.993 507.68 931.518 507.68 886.768C507.68 828.92 487.519 774.347 447.197 723.048C407.964 670.657 338.218 621.541 237.958 575.7C149.685 535.316 79.9387 497.66 28.7188 462.733C-21.4114 426.715 -57.9192 390.151 -80.8047 353.041C-102.6 314.84 -113.498 271.727 -113.498 223.702C-113.498 184.409 -103.145 145.662 -82.4394 107.461C-61.7335 69.2597 -30.6746 38.1529 10.7373 14.1407C53.239 -9.87158 104.459 -21.8777 164.397 -21.8777C199.27 -21.8777 230.329 -16.4204 257.574 -5.50571C284.819 5.40894 314.788 20.6894 347.481 40.3358C376.906 57.7993 395.977 66.5311 404.695 66.5311C413.413 66.5311 419.407 61.0737 422.677 50.159C427.036 39.2443 429.215 21.2352 429.215 -3.86856H445.562L479.89 326.846H460.274C454.825 279.913 437.934 230.797 409.599 179.498C381.265 127.107 344.757 83.4487 300.076 48.5218C256.484 13.5949 209.623 -3.86856 159.493 -3.86856C89.7468 -3.86856 34.1677 16.8693 -7.24416 58.345C-47.5663 99.8207 -67.7273 150.574 -67.7273 210.605C-67.7273 271.727 -42.6622 325.754 7.46794 372.687C57.5981 418.529 138.242 466.008 249.401 515.124C354.02 560.965 431.94 612.81 483.16 670.657C535.469 728.505 561.624 793.993 561.624 867.121C561.624 927.152 546.367 979.542 515.853 1024.29C486.429 1069.04 447.197 1103.42 398.156 1127.44C349.116 1150.36 296.806 1161.82 241.227 1161.82Z" fill="white" fill-opacity="0.02"/>
<path d="M688.936 655C662.781 655 640.44 646.268 621.914 628.805C604.477 610.25 595.759 587.875 595.759 561.68C595.759 536.576 604.477 514.747 621.914 496.192C640.44 477.637 662.781 468.359 688.936 468.359C714.001 468.359 735.796 477.637 754.323 496.192C772.849 514.747 782.112 536.576 782.112 561.68C782.112 587.875 772.849 610.25 754.323 628.805C735.796 646.268 714.001 655 688.936 655Z" fill="white" fill-opacity="0.02"/>
<path d="M1150.28 -116.359C1124.12 -116.359 1101.78 -125.091 1083.25 -142.555C1065.82 -161.109 1057.1 -183.484 1057.1 -209.68C1057.1 -234.783 1065.82 -256.613 1083.25 -275.168C1101.78 -293.723 1124.12 -303 1150.28 -303C1175.34 -303 1197.14 -293.723 1215.66 -275.168C1234.19 -256.613 1243.45 -234.783 1243.45 -209.68C1243.45 -183.484 1234.19 -161.109 1215.66 -142.555C1197.14 -125.091 1175.34 -116.359 1150.28 -116.359Z" fill="white" fill-opacity="0.02"/>
<path d="M1466.4 -116.359C1440.25 -116.359 1417.9 -125.091 1399.38 -142.555C1381.94 -161.109 1373.22 -183.484 1373.22 -209.68C1373.22 -234.783 1381.94 -256.613 1399.38 -275.168C1417.9 -293.723 1440.25 -303 1466.4 -303C1491.47 -303 1513.26 -293.723 1531.79 -275.168C1550.31 -256.613 1559.58 -234.783 1559.58 -209.68C1559.58 -183.484 1550.31 -161.109 1531.79 -142.555C1513.26 -125.091 1491.47 -116.359 1466.4 -116.359Z" fill="white" fill-opacity="0.02"/>
<path d="M871.89 1141.72V-28.8808H1394.99C1520.31 -28.8808 1614.58 -0.502701 1677.79 56.2535C1739.9 111.918 1770.96 185.046 1770.96 275.638C1770.96 390.242 1709.94 468.282 1587.88 509.758V514.669C1653.27 534.316 1705.58 569.788 1744.81 621.087C1785.13 672.386 1805.29 733.508 1805.29 804.453C1805.29 908.143 1770.96 989.457 1702.31 1048.4C1631.47 1110.61 1533.39 1141.72 1408.06 1141.72H871.89ZM1108.92 617.813V945.252H1381.91C1438.58 945.252 1483.26 931.063 1515.95 902.685C1548.65 873.216 1564.99 834.469 1564.99 786.444C1564.99 732.962 1547.01 691.487 1511.05 662.017C1476.18 632.548 1430.95 617.813 1375.37 617.813H1108.92ZM1108.92 442.632H1365.56C1417.87 442.632 1459.83 430.626 1491.43 406.614C1523.04 381.51 1538.84 346.584 1538.84 301.833C1538.84 258.175 1523.58 224.339 1493.07 200.327C1463.64 176.315 1422.78 164.309 1370.47 164.309H1108.92V442.632Z" fill="white" fill-opacity="0.02"/>
<path d="M2216 1163C2092.86 1163 1998.05 1134.62 1931.57 1077.87C1866.18 1020.02 1833.49 934.884 1833.49 822.463V706.221H2046V807.728C2046 916.874 2096.13 971.448 2196.39 971.448C2290.11 971.448 2336.97 917.966 2336.97 811.002V-28.8808H2574V812.639C2574 917.42 2543.49 1002.01 2482.46 1066.41C2421.43 1130.8 2332.61 1163 2216 1163Z" fill="white" fill-opacity="0.02"/>
</g>
<defs>
<clipPath id="clip0_14540_404">
<rect width="1728" height="1118" fill="white"/>
</clipPath>
</defs>
</svg>
