<svg width="32" height="32" viewBox="0 0 32 32" fill="none" xmlns="http://www.w3.org/2000/svg">
<rect width="32" height="32" rx="16" fill="#131313"/>
<path d="M11 23V10.2365H17.1646C18.648 10.2365 19.7846 10.5756 20.4974 11.1647C21.2487 11.7895 21.5954 12.5571 21.5954 13.5568C21.5954 14.8599 20.7285 15.6989 19.4378 16.1095V16.163C20.9597 16.5736 22 17.7518 22 19.3227C22 20.5187 21.5954 21.3398 20.7863 21.9825C19.9965 22.6251 18.7828 23 17.3187 23H11ZM13.7933 17.2877V20.8579H17.0105C18.359 20.8579 19.1681 20.1617 19.1681 19.1263C19.1681 17.9124 18.2049 17.2877 16.9335 17.2877H13.7933ZM13.7933 15.3776H16.8179C18.0315 15.3776 18.8599 14.8421 18.8599 13.8424C18.8599 12.8963 18.1086 12.3429 16.8757 12.3429H13.7933V15.3776Z" fill="#FAF9F6"/>
<path d="M15.1928 8.16239C15.1928 8.80437 14.6297 9.32479 13.935 9.32479C13.2403 9.32479 12.6771 8.80437 12.6771 8.16239C12.6771 7.52042 13.2403 7 13.935 7C14.6297 7 15.1928 7.52042 15.1928 8.16239Z" fill="#FAF9F6"/>
<path d="M18.6457 8.16239C18.6457 8.80437 18.0826 9.32479 17.3879 9.32479C16.6932 9.32479 16.13 8.80437 16.13 8.16239C16.13 7.52042 16.6932 7 17.3879 7C18.0826 7 18.6457 7.52042 18.6457 8.16239Z" fill="#FAF9F6"/>
</svg>
